<svg width="19" height="18" viewBox="0 0 19 18" fill="none" xmlns="http://www.w3.org/2000/svg">
<g clip-path="url(#clip0_1026_3)">
<path d="M13.863 11.545L5.37699 1.55698C5.27468 1.44807 5.21749 1.3044 5.21699 1.15498C5.21699 0.994977 5.27599 0.862977 5.39299 0.764977C5.50999 0.666977 5.66299 0.616977 5.86299 0.616977H13.782C13.9407 0.611969 14.0985 0.643024 14.2435 0.707805C14.3884 0.772586 14.5168 0.869405 14.619 0.990977L18.794 5.76698C18.904 5.91098 18.962 6.09798 18.97 6.33198C18.978 6.56598 18.919 6.75298 18.794 6.89698L14.725 11.462C14.6163 11.5907 14.4624 11.673 14.295 11.692C14.115 11.719 13.974 11.669 13.865 11.544L13.863 11.545ZM9.04299 16.968L0.176991 6.73798C0.0519913 6.59398 -0.00700871 6.40698 0.000991289 6.17698C0.0019964 5.97096 0.073652 5.77153 0.203991 5.61198L3.05999 2.28198C3.20499 2.12198 3.35699 2.03998 3.51799 2.03998C3.71399 2.03998 3.87799 2.12198 4.00299 2.28198L12.924 12.754C13.03 12.879 13.084 13.011 13.084 13.144C13.084 13.277 13.033 13.409 12.924 13.534L9.90699 16.969C9.86007 17.0363 9.79731 17.091 9.72423 17.1283C9.65116 17.1657 9.57003 17.1844 9.48799 17.183C9.40235 17.1831 9.31778 17.1639 9.24057 17.1269C9.16335 17.0898 9.09548 17.0359 9.04199 16.969L9.04299 16.968Z" fill="white"/>
</g>
<defs>
<clipPath id="clip0_1026_3">
<rect width="19" height="18" fill="white"/>
</clipPath>
</defs>
</svg>
